<svg xmlns="http://www.w3.org/2000/svg" viewBox="0 0 678.75 122.73"><defs><style>.cls-1{fill:#e0e3da;}</style></defs><title>Eximus</title><g id="Layer_2" data-name="Layer 2"><g id="Layer_2_copy" data-name="Layer 2 copy"><path class="cls-1" d="M0,13.59H0L47.8,61.37,0,109.15H0v10.57a3,3,0,0,0,3,3H118.88a3,3,0,0,0,3-3v-7.55a3,3,0,0,0-3-3H19.23L57.4,71,67,61.38h0L19.23,13.59h99.65a3,3,0,0,0,3-3V3a3,3,0,0,0-3-3H3A3,3,0,0,0,0,3Z"/><path class="cls-1" d="M243.28,1.86l-49.8,49.8L143.75,1.93a3,3,0,0,0-4.27,0l-5.34,5.34a3,3,0,0,0,0,4.27l49.73,49.73L134.14,111a3,3,0,0,0,0,4.27l5.34,5.34a3,3,0,0,0,4.27,0l49.73-49.73,49.8,49.8a3,3,0,0,0,4.27,0l5.34-5.34a3,3,0,0,0,0-4.27l-49.8-49.8,49.8-49.8a3,3,0,0,0,0-4.27l-5.34-5.34A3,3,0,0,0,243.28,1.86Z"/><rect class="cls-1" x="263.8" width="13.59" height="122.6" rx="3.02" ry="3.02"/><path class="cls-1" d="M395.74.88,348.31,48.32,300.92.89A3,3,0,0,0,298.78,0h-9.32a3,3,0,0,0-3,3V119.59a3,3,0,0,0,3,3H297a3,3,0,0,0,3-3V19.26l48.22,48.33,48.4-48.4V119.59a3,3,0,0,0,3,3h7.55a3,3,0,0,0,3-3V3a3,3,0,0,0-3-3h-9.34A3,3,0,0,0,395.74.88Z"/><path class="cls-1" d="M531,108.85H434.38V3a3,3,0,0,0-3-3h-7.55a3,3,0,0,0-3,3v116.4a3,3,0,0,0,3,3H541.57a3,3,0,0,0,3-3V3a3,3,0,0,0-3-3H534a3,3,0,0,0-3,3Z"/><path class="cls-1" d="M559.56,68H665.16v40.84H559.56a3,3,0,0,0-3,3v7.55a3,3,0,0,0,3,3H678.75v-65a3,3,0,0,0-3-3H570.12V13.59H675.73a3,3,0,0,0,3-3V3a3,3,0,0,0-3-3H556.54V65A3,3,0,0,0,559.56,68Z"/></g></g></svg>