<svg xmlns="http://www.w3.org/2000/svg" viewBox="0 0 311.62 211.12"><defs><style>.cls-1{fill:#fff;}</style></defs><title>eye</title><g id="Layer_2" data-name="Layer 2"><g id="Logo"><path class="cls-1" d="M0,119.17a57,57,0,0,1,3.25-9.67q.51-1.17,1.06-2.29c.11-.22.15-.29.21-.41l.18-.33.36-.66,1.43-2.63,1.41-2.64,1.48-2.6c1-1.73,2-3.48,3-5.19l3.08-5.14,3.22-5.06c2.19-3.35,4.4-6.68,6.77-9.92A206.57,206.57,0,0,1,57.72,36.71,151.9,151.9,0,0,1,99.3,10.76,135.6,135.6,0,0,1,147.85.11,139.66,139.66,0,0,1,197.4,7.34a159.73,159.73,0,0,1,44.39,23.07A208.38,208.38,0,0,1,278,64.57a289.27,289.27,0,0,1,28.24,40.78l5.4,9.28-6.07,8.8a235.38,235.38,0,0,1-29.78,35.62,194.72,194.72,0,0,1-36.62,28.16,176.28,176.28,0,0,1-42.27,18,163.53,163.53,0,0,1-45.26,5.89,162.62,162.62,0,0,1-44.8-6.81,175.36,175.36,0,0,1-41.05-18.4,180.41,180.41,0,0,1-18.38-12.84,193.92,193.92,0,0,1-16.8-14.75c-5.34-5.19-10.37-10.68-15.15-16.37-1.22-1.4-2.4-2.84-3.55-4.29s-2.34-2.89-3.44-4.38l-1.7-2.21L5.89,130l-.24-.31-.35-.51-.7-1A50.38,50.38,0,0,1,0,119.17Zm22.27-1.84c.78-.07,1.17-.26,1.31-.12l0,.07v0l.15.23.69,1.06,1.38,2.12c.91,1.42,1.9,2.78,2.87,4.15s1.94,2.75,3,4.08a176.39,176.39,0,0,0,13,15.36,174.31,174.31,0,0,0,14.77,13.59,159.08,159.08,0,0,0,16.36,11.51,137.57,137.57,0,0,0,36.43,15.66,129.78,129.78,0,0,0,39.07,4.27,128.56,128.56,0,0,0,19.45-2.29,126.32,126.32,0,0,0,18.83-5.16,134.18,134.18,0,0,0,34.23-18.2c20.94-15.23,37.31-36.21,47.9-59.64l-.67,18.08a177.37,177.37,0,0,0-19.28-37.56A162,162,0,0,0,238.84,68a149.12,149.12,0,0,0-15-14.58,132.13,132.13,0,0,0-35.37-21.58,114.71,114.71,0,0,0-40.38-8.41,113,113,0,0,0-41,7A131.19,131.19,0,0,0,70.48,51.83a152.23,152.23,0,0,0-29.1,32c-2.06,3-4,6.1-5.9,9.21l-2.72,4.76-2.58,4.84c-.89,1.6-1.61,3.29-2.42,4.93L26.59,110l-1.11,2.52-1.09,2.52-.27.63L24,116a1.92,1.92,0,0,0-.1.24,1.08,1.08,0,0,1-.13.32C23.56,116.93,23.08,117.06,22.27,117.34Z"/><ellipse class="cls-1" cx="145.89" cy="108.26" rx="62.75" ry="60"/></g></g></svg>