<svg xmlns="http://www.w3.org/2000/svg" viewBox="0 0 198.94 137.31"><defs><style>.cls-1{fill:#e0e3da;}.cls-2{fill:none;stroke:#e0e3da;stroke-miterlimit:10;stroke-width:14px;}</style></defs><title>Insomnia-logo</title><g id="Layer_2" data-name="Layer 2"><g id="Logo"><path class="cls-1" d="M8.79,84.32a4.64,4.64,0,0,1,1.54.58,2.24,2.24,0,0,1,.27.23l.56.54,1.2,1.16c1.6,1.56,3.24,3.06,4.88,4.57,3.29,3,6.69,5.87,10.17,8.63a156.67,156.67,0,0,0,22,14.73,116.5,116.5,0,0,0,24.22,10,96.08,96.08,0,0,0,25.72,3.68,95,95,0,0,0,25.73-3.57,114.24,114.24,0,0,0,24.19-10.07c15.42-8.53,29.15-20.14,41.47-33h0l-.9,4.54a163.34,163.34,0,0,0-14.48-28.78A125.23,125.23,0,0,0,155,33a96.2,96.2,0,0,0-26.27-17.45A78,78,0,0,0,98.33,8.83,74.37,74.37,0,0,0,67.91,15a88.33,88.33,0,0,0-26,17.54A118.9,118.9,0,0,0,22.24,57.62a151.49,151.49,0,0,0-7.5,14.23c-1.1,2.45-2.22,4.9-3.2,7.41l-.76,1.87-.19.47-.14.36a5.15,5.15,0,0,1-.22.5A8.49,8.49,0,0,1,8.79,84.32ZM0,86.26a43.21,43.21,0,0,1,1.47-5.89q.24-.73.5-1.44l.13-.35.1-.25.2-.49.8-2c1-2.63,2.22-5.21,3.38-7.79a160.47,160.47,0,0,1,8-15.05A127.79,127.79,0,0,1,35.73,26.13,97.21,97.21,0,0,1,64.4,6.89,83.24,83.24,0,0,1,98.43,0a86.77,86.77,0,0,1,33.84,7.5,105,105,0,0,1,28.66,19.07A133.93,133.93,0,0,1,182.7,52.89a172,172,0,0,1,15.22,30.33l1,2.57-1.91,2h0c-12.74,13.38-27.07,25.59-43.51,34.72a123,123,0,0,1-26,10.87,103.85,103.85,0,0,1-28.12,3.94,104.94,104.94,0,0,1-28.12-4,125.37,125.37,0,0,1-26.08-10.76,165.56,165.56,0,0,1-23.29-15.53c-3.65-2.89-7.21-5.88-10.64-9-1.71-1.56-3.43-3.13-5.09-4.74l-1.25-1.2-.67-.65q-.47-.47-.93-1A33,33,0,0,1,0,86.26Z"/><circle class="cls-2" cx="96.39" cy="69.29" r="28.5"/></g></g></svg>