<svg xmlns="http://www.w3.org/2000/svg" viewBox="0 0 205.37 141.17"><defs><style>.cls-1{fill:#fff;}.cls-2{fill:none;stroke:#fff;stroke-miterlimit:10;stroke-width:20px;}</style></defs><title>Insomnia-logo</title><g id="Layer_2" data-name="Layer 2"><g id="Logo"><path class="cls-1" d="M14.65,84.59a2.93,2.93,0,0,0,1-.64s0,0,.05,0l.52.51,1.19,1.15c1.57,1.54,3.2,3,4.81,4.51,3.24,3,6.59,5.79,10,8.5a153.71,153.71,0,0,0,21.59,14.47,113.55,113.55,0,0,0,23.59,9.81,93.13,93.13,0,0,0,24.93,3.58A92.09,92.09,0,0,0,127.24,123a111.32,111.32,0,0,0,23.57-9.8c15.08-8.32,28.61-19.74,40.79-32.47h0l-1.39,7.84a162.84,162.84,0,0,0-15.13-27.36A128.52,128.52,0,0,0,154.67,38a99.51,99.51,0,0,0-25.45-16.53,78.27,78.27,0,0,0-28.94-6.76A70.13,70.13,0,0,0,71.36,20,80.9,80.9,0,0,0,46.44,36.4a111.18,111.18,0,0,0-18.91,24,148.36,148.36,0,0,0-7.24,13.77c-1.06,2.38-2.14,4.75-3.1,7.19l-.74,1.82c-.33.81-.27.74-.41.86A6.72,6.72,0,0,1,14.65,84.59ZM0,87.83a37.81,37.81,0,0,1,1.45-7.15c.35-1.15.86-2.5,1.06-3l.8-2c1-2.64,2.23-5.23,3.39-7.82a163.29,163.29,0,0,1,8-15.16A126,126,0,0,1,36.24,25.6,95.72,95.72,0,0,1,65.76,6.34a84.92,84.92,0,0,1,35-6.29,93,93,0,0,1,34.38,8.08,114.08,114.08,0,0,1,29.19,19A143,143,0,0,1,187,53a177.27,177.27,0,0,1,16.43,29.85l1.93,4.41-3.32,3.43h0c-12.89,13.54-27.41,25.95-44.19,35.28A125.9,125.9,0,0,1,131.2,137.1a106.79,106.79,0,0,1-28.92,4.07,107.9,107.9,0,0,1-28.91-4.06,128.34,128.34,0,0,1-26.7-11,168.54,168.54,0,0,1-23.72-15.79c-3.71-2.93-7.32-6-10.8-9.12C10.41,99.61,8.67,98,7,96.4L5.72,95.18,5,94.5c-.39-.39-.78-.8-1.15-1.22A30.37,30.37,0,0,1,0,87.83Z"/><circle class="cls-2" cx="99.32" cy="70.21" r="28.5"/></g></g></svg>