<svg xmlns="http://www.w3.org/2000/svg" viewBox="0 0 806.67 193.05"><defs><style>.cls-1{fill:#fff;}.cls-2{fill:none;stroke:#fff;stroke-miterlimit:10;stroke-width:18px;}</style></defs><title>Logo</title><g id="Layer_2" data-name="Layer 2"><g id="Layer_2-2" data-name="Layer 2"><path class="cls-1" d="M64,20.33c9-9,19.58-9.17,24.19-9.33H90V0H0V11H1.81c4.61.15,15.22.36,24.19,9.33,5,5,7.69,9.8,7.83,14,.08,2.35.08,121.36,0,123.71-.14,4.18-2.83,9-7.83,14-9,9-19.58,9.17-24.19,9.33H0v11H90v-11H88.19C83.58,181.17,73,181,64,172c-5-5-7.69-9.8-7.83-14-.08-2.35-.08-121.36,0-123.71C56.31,30.13,59,25.33,64,20.33Z"/><path class="cls-2" d="M208.5,168.83c14,20,62,19.17,62-8,0-20.5-21.5-19.5-30.5-19.5-7.28,0-29-1-30.5-16.5-.5-34.5,53.5-23.5,53.5-23.5"/><path class="cls-2" d="M379,141.33c0,33-21.22,41-40,41s-39-9-39-41c0-33,16-42,39-42C361,99.33,379,109.33,379,141.33Z"/><rect class="cls-1" x="401" y="81.33" width="18" height="111"/><path class="cls-2" d="M413.5,111.83s23-19,46-8,15,48,16,89"/><path class="cls-2" d="M472.5,111.83s23-19,46-8,15,48,16,89"/><polyline class="cls-2" points="569.5 81.33 569.5 129.99 569.5 192.33"/><path class="cls-2" d="M569.5,111.83s23-19,46-8,16,47.5,16,88"/><line class="cls-2" x1="671" y1="90.33" x2="670.5" y2="191.83"/><circle class="cls-1" cx="671" cy="70.33" r="11.5"/><path class="cls-2" d="M777,140.33c0,23.75-10,43-37,43-22,0-37-16.25-37-40s8-44,38-44C768,99.33,777,116.58,777,140.33Z"/><path class="cls-2" d="M780,81.33s0,19-.5,43.5c-.51,25,.5,58.5,27,58"/><polyline class="cls-2" points="116 81.33 116 129.99 116 192.33"/><path class="cls-2" d="M116,111.83s23-19,46-8,16,47.5,16,88"/></g></g></svg>